<?xml version="1.0" encoding="utf-8"?>
<!-- Generator: Adobe Illustrator 16.0.0, SVG Export Plug-In . SVG Version: 6.00 Build 0)  -->
<!DOCTYPE svg PUBLIC "-//W3C//DTD SVG 1.1//EN" "http://www.w3.org/Graphics/SVG/1.1/DTD/svg11.dtd">
<svg version="1.1" xmlns="http://www.w3.org/2000/svg" xmlns:xlink="http://www.w3.org/1999/xlink" x="0px" y="0px" width="144px"
	 height="144px" viewBox="2.479 1.271 144 144" enable-background="new 2.479 1.271 144 144" xml:space="preserve">
<g id="Calque_1" display="none">
	<g id="Calque_2" display="inline">
		<path opacity="0.1" fill="#66A3FF" enable-background="new    " d="M74.834,2.398C114.138,2.398,146,34.262,146,73.565
			c0,39.303-31.862,71.166-71.167,71.166S3.667,112.869,3.667,73.565S35.53,2.398,74.834,2.398z"/>
	</g>
	<g id="Calque_1_1_" display="inline">
		<path fill="#66A3FF" d="M104.834,73.565c0-16.568-13.433-30-30-30s-30,13.432-30,30c0,15.216,11.331,27.776,26.013,29.728
			l3.987,11.079l3.987-11.079C93.504,101.342,104.834,88.781,104.834,73.565z"/>
	</g>
	<g id="Calque_4">
		<path display="inline" fill="none" d="M60,82h24v24H60V82z"/>
		<path display="inline" fill="#FFFFFF" d="M63.346,67.54c1.178-1.193,2.354-2.27,2.875-2.051c0.841,0.337,0,1.732-0.504,2.556
			c-0.42,0.706-4.808,6.541-4.808,10.609c0,2.151,0.807,3.934,2.253,5.011c1.261,0.941,2.926,1.227,4.438,0.771
			c1.799-0.521,3.279-2.353,5.144-4.656c2.037-2.506,4.76-5.785,6.86-5.785c2.742,0,2.775,1.699,2.959,3.01
			c-6.354,1.077-9.043,6.17-9.043,9.03c0,2.856,2.42,5.195,5.395,5.195c2.742,0,7.215-2.236,7.887-10.257h4.137V76.77h-4.154
			c-0.25-2.775-1.832-7.061-6.773-7.061c-3.782,0-7.026,3.211-8.304,4.775c-0.976,1.227-3.465,4.169-3.853,4.573
			c-0.42,0.504-1.144,1.412-1.865,1.412c-0.758,0-1.212-1.396-0.605-3.228c0.589-1.834,2.354-4.809,3.11-5.919
			c1.311-1.916,2.186-3.227,2.186-5.514c0-3.648-2.757-4.809-4.221-4.809c-2.219,0-4.151,1.681-4.571,2.102
			c-0.608,0.604-1.11,1.109-1.481,1.563L63.346,67.54z M78.965,87.144c-0.521,0-1.243-0.437-1.243-1.21
			c0-1.008,1.228-3.699,4.825-4.64C82.043,85.815,80.143,87.144,78.965,87.144z"/>
	</g>
	<g id="Calque_5" display="inline">
		<circle fill="#FFFFFF" cx="75.001" cy="65" r="9.666"/>
	</g>
	<g id="Calque_6" display="inline">
		<path fill="#FFFFFF" d="M92.424,84.933c-4.575-3.58-10.658-5.766-17.341-5.766c-6.803,0-12.985,2.264-17.587,5.958
			c-0.809,0.614-0.934,1.604-0.114,2.578c3.64,4.481,9.487,8.155,17.446,8.155c8.01,0,14.055-3.83,17.715-8.481
			C93.334,86.396,93,85.375,92.424,84.933z"/>
	</g>
</g>
<g id="Calque_2_1_">
	<path opacity="0.3" fill="#66A3FF" d="M125.579,23.686C112.667,10.552,94.707,2.398,74.834,2.398
		c-19.597,0-37.341,7.923-50.211,20.738l50.753,50.753L125.579,23.686z"/>
</g>
</svg>
