<?xml version="1.0" encoding="utf-8"?>
<!-- Generator: Adobe Illustrator 16.0.0, SVG Export Plug-In . SVG Version: 6.00 Build 0)  -->
<!DOCTYPE svg PUBLIC "-//W3C//DTD SVG 1.1//EN" "http://www.w3.org/Graphics/SVG/1.1/DTD/svg11.dtd">
<svg version="1.1" xmlns="http://www.w3.org/2000/svg" xmlns:xlink="http://www.w3.org/1999/xlink" x="0px" y="0px" width="120px"
	 height="120px" viewBox="0 0 120 120" enable-background="new 0 0 120 120" xml:space="preserve">
<g id="Calque_1">
	<g id="Calque_2">
		<path opacity="0.1" fill="#66A3FF" enable-background="new    " d="M60,0.001c33.138,0,60,26.864,60,60
			c0,33.137-26.861,59.998-60,59.998c-33.137,0-60-26.861-60-59.998S26.863,0.001,60,0.001z"/>
	</g>
</g>
<g id="Calque_2_1_">
	<path opacity="0.3" fill="#66A3FF" d="M102.716,17.878C91.836,6.846,76.721,0.001,60,0.001c-16.633,0-31.682,6.771-42.549,17.703
		l42.72,42.72L102.716,17.878z"/>
</g>
<g id="Calque_3" display="none">
	<g display="inline">
		<path fill="#66A3FF" d="M60,3c31.48,0,57,25.52,57,57s-25.52,57-57,57S3,91.48,3,60S28.52,3,60,3 M60,0C26.916,0,0,26.916,0,60
			s26.916,60,60,60s60-26.916,60-60S93.084,0,60,0L60,0z"/>
		<path fill="#66A3FF" d="M60,11.625c26.717,0,48.375,21.658,48.375,48.375S86.717,108.375,60,108.375S11.625,86.717,11.625,60
			S33.283,11.625,60,11.625 M60,8.625C31.672,8.625,8.625,31.672,8.625,60S31.672,111.375,60,111.375S111.375,88.328,111.375,60
			S88.328,8.625,60,8.625L60,8.625z"/>
		<path fill="#66A3FF" d="M60,20.125c22.022,0,39.875,17.853,39.875,39.875S82.022,99.875,60,99.875S20.125,82.022,20.125,60
			S37.978,20.125,60,20.125 M60,17.125c-23.642,0-42.875,19.233-42.875,42.875S36.358,102.875,60,102.875S102.875,83.642,102.875,60
			S83.642,17.125,60,17.125L60,17.125z"/>
		<path fill="#66A3FF" d="M60,20.125c22.022,0,39.875,17.853,39.875,39.875S82.022,99.875,60,99.875S20.125,82.022,20.125,60
			S37.978,20.125,60,20.125 M60,17.125c-23.642,0-42.875,19.233-42.875,42.875S36.358,102.875,60,102.875S102.875,83.642,102.875,60
			S83.642,17.125,60,17.125L60,17.125z"/>
		<path fill="#66A3FF" d="M60,28.875c17.19,0,31.125,13.935,31.125,31.125c0,17.19-13.935,31.125-31.125,31.125
			C42.81,91.125,28.875,77.19,28.875,60C28.875,42.81,42.81,28.875,60,28.875 M60,25.875c-18.816,0-34.125,15.309-34.125,34.125
			S41.184,94.125,60,94.125S94.125,78.816,94.125,60S78.816,25.875,60,25.875L60,25.875z"/>
	</g>
</g>
</svg>
